# Blender v2.80 (sub 75) OBJ File: 'elemento angolare muri.blend'
# www.blender.org
mtllib elemento angolare muri.mtl
o Cube
v 1.000000 -1.000000 -1.000000
v 1.000000 1.000000 1.000000
v 1.000000 -1.000000 1.000000
v -1.000000 -1.000000 -1.000000
v -1.000000 1.000000 1.000000
v -1.000000 -1.000000 1.000000
vt 0.375000 0.750000
vt 0.625000 0.500000
vt 0.625000 0.250000
vt 0.625000 0.750000
vt 0.375000 0.250000
vt 0.375000 0.500000
vt 0.625000 1.000000
vt 0.375000 1.000000
vn 0.0000 0.7071 -0.7071
vn 0.0000 0.0000 1.0000
vn 1.0000 0.0000 0.0000
vn 0.0000 -1.0000 0.0000
vn -1.0000 0.0000 0.0000
usemtl Material
s off
f 4/1/1 5/2/1 2/3/1 1/4/1
f 3/5/2 2/3/2 5/2/2 6/6/2
f 2/3/3 3/7/3 1/4/3
f 4/1/4 1/4/4 3/7/4 6/8/4
f 6/6/5 5/2/5 4/1/5
