# Blender v2.80 (sub 75) OBJ File: ''
# www.blender.org
mtllib lampada.mtl
o Cone
v -0.000000 1.606343 -0.500000
v 0.500000 1.606343 0.000000
v -0.000000 1.606343 0.500000
v -0.500000 1.606343 -0.000000
v -0.000000 2.025293 0.000000
vt 0.250000 0.490000
vt 0.250000 0.250000
vt 0.490000 0.250000
vt 0.250000 0.010000
vt 0.010000 0.250000
vt 0.750000 0.490000
vt 0.990000 0.250000
vt 0.750000 0.010000
vt 0.510000 0.250000
vn 0.5404 0.6449 -0.5404
vn 0.5404 0.6449 0.5404
vn -0.5404 0.6449 0.5404
vn -0.5404 0.6449 -0.5404
vn 0.0000 -1.0000 0.0000
usemtl None
s off
f 1/1/1 5/2/1 2/3/1
f 2/3/2 5/2/2 3/4/2
f 3/4/3 5/2/3 4/5/3
f 4/5/4 5/2/4 1/1/4
f 1/6/5 2/7/5 3/8/5 4/9/5
